<?xml version="1.0" encoding="utf-8"?>
<!-- Generator: Adobe Illustrator 19.0.0, SVG Export Plug-In . SVG Version: 6.00 Build 0)  -->
<svg version="1.1" id="Слой_1" xmlns="http://www.w3.org/2000/svg" xmlns:xlink="http://www.w3.org/1999/xlink" x="0px" y="0px"
	 viewBox="-27 328.9 540.5 185" style="enable-background:new -27 328.9 540.5 185;" xml:space="preserve">
<style type="text/css">
	.maqpie-logo-st0{fill:white;}
</style>
<g>
	<path class="maqpie-logo-st0" d="M-24.5,340.9c0,0-17.9,74.8,42.9,131.6c8.7,0,10.4-10.6,10.4-10.6s-17.2-23.8-17.2-57c0-6.9,1.1-18.9,3.7-27.5
		c-1.8,1.1-4.9,2.3-8.2,11.4c-2.1,5.9-1.7,30.7,1.6,43.5c-7-32-4.6-49.5,3.7-103.4c-27,20.2-26.3,71.1-15.7,102
		c-9.6-27-8.8-50.6-8.8-50.6C-15.4,363.1-24.5,340.9-24.5,340.9z"/>
	<path class="maqpie-logo-st0" d="M102.6,446.4c-0.3-9.7-12.2-17.5-22.3-15c-19.5,4.7-67.1,22.4-79.2,82.5c9.6-14,17.9-22.3,31.1-31
		c0,0,19,12.8,49.4,9.8c-11-1.7-12.1-9.9-12.1-14c1.3-10.8,10.4-11.9,12.3-12C84.5,466.5,103.3,466.8,102.6,446.4z M84,455.5
		c-8.1,0.2-19.5,2.1-28.8,5.3c-9.4,3.5-13.6,5.1-22,10.5c2.4-4.4,7.6-10.9,6.8-10.2c-1.3,1-14.2,16.1-13.4,14.8
		c1.2-2.8,2.8-4.7,8-12.3c-7.1,6.4-16.2,18.7-17.3,20.2C34.9,453.5,64,439.9,81.5,436c6.2-1.4,11.7,3.3,11.7,9.6
		C93.2,451.8,87.7,455.4,84,455.5z"/>
	<path class="maqpie-logo-st0" d="M154.6,413.2c-8.9-0.4-9.7-6.1-18.5-6.1c-9.4,0-13.1,6.7-14.7,9.5c-2.7,4.8-5.7,10.8-17.1,11.6
		c-2.2,0.2-5.8-0.1-5.8-0.1c-0.2,0,12.6,2.3,13.1,18.3c-0.5,12.4-7.7,13.8-7.4,17.4c0,5.9,7.8,4.2,7.7,12.9c0,4.6-2.6,7-4.7,8.1
		c6.8-3.1,25.7-13.7,36.3-36.1c3.7-7.4,4.6-13.1,6.6-17.7c2.1-5.1,7.8-12.6,20.9-13.1C170.9,418,165.4,413.4,154.6,413.2z
		 M146.1,423.6c-8.8,0-8.6-7.8-8.6-7.8c0-2,1.6-3.5,3.5-3.5s3.5,1.6,3.5,3.5s-1.6,3.5-3.5,3.5c1.1,0.9,2.8,1.8,5.4,1.6
		c4.9-0.4,6.3-5,6.3-5c2.4-0.9,13.8,1.3,13.8,1.3C150.7,416.9,151.4,423.6,146.1,423.6z"/>
	<g>
		<path class="maqpie-logo-st0" d="M249.7,493.3H235V456l-16.6,27.2h-1.7L200.1,456v37.3h-14.7v-64.2h14.7l17.4,28.5l17.4-28.5h14.7v64.2
			L249.7,493.3L249.7,493.3z"/>
		<path class="maqpie-logo-st0" d="M298.3,483.2h-23.8l-3.2,10.1h-16l21.8-64.2h18.7l21.8,64.2h-16L298.3,483.2z M293.9,469.4l-7.6-23.5
			l-7.5,23.6h15.1V469.4z"/>
		<path class="maqpie-logo-st0" d="M377.4,482.2l6.4,6.8l-10.5,9.4l-6.9-7.2c-4.5,2.2-9.6,3.5-15,3.5c-18.4,0-33.4-14.5-33.4-33.4
			s14.9-33.4,33.4-33.4s33.4,14.5,33.4,33.4C384.7,469.2,382,476.5,377.4,482.2z M355.8,479.8l-9.3-9.8l10.5-9.4l10.3,10.9
			c1.7-2.9,2.7-6.4,2.7-10.4c0-11.5-8.3-19.1-18.7-19.1s-18.7,7.6-18.7,19.1s8.3,19.1,18.7,19.1
			C352.9,480.2,354.4,480.1,355.8,479.8z"/>
		<path class="maqpie-logo-st0" d="M440.2,451.1c0,12.2-9.8,22-22.5,22h-9.6v20.2h-14.7v-64.2h24.3C430.4,429.1,440.2,438.9,440.2,451.1z
			 M425.5,451.1c0-4.7-3.3-8.3-7.8-8.3h-9.6v16.5h9.6C422.2,459.3,425.5,455.8,425.5,451.1z"/>
		<path class="maqpie-logo-st0" d="M462.2,429.1v64.2h-14.7v-64.2H462.2z"/>
		<path class="maqpie-logo-st0" d="M513.5,479.1v14.1h-40.3V429h39.9v14.1h-25.2v10.6h22.9v13.9h-22.9V479L513.5,479.1L513.5,479.1z"/>
	</g>
</g>
</svg>
